<mxfile host="app.diagrams.net" agent="Mozilla/5.0 (Windows NT 10.0; Win64; x64) AppleWebKit/537.36 (KHTML, like Gecko) Chrome/135.0.0.0 Safari/537.36" version="26.2.14">
  <diagram name="Página-1" id="UdxR_cU9q1fzm9HoFIDS">
    <mxGraphModel grid="1" page="1" gridSize="10" guides="1" tooltips="1" connect="1" arrows="1" fold="1" pageScale="1" pageWidth="827" pageHeight="1169" math="0" shadow="0">
      <root>
        <mxCell id="0" />
        <mxCell id="1" parent="0" />
        <mxCell id="znzaiTQ--xKtSiv8sLQJ-1" value="" style="whiteSpace=wrap;html=1;aspect=fixed;" vertex="1" parent="1">
          <mxGeometry x="170" y="190" width="760" height="760" as="geometry" />
        </mxCell>
        <mxCell id="znzaiTQ--xKtSiv8sLQJ-2" value="Funcionarios" style="shape=umlActor;verticalLabelPosition=bottom;verticalAlign=top;html=1;outlineConnect=0;" vertex="1" parent="1">
          <mxGeometry x="30" y="730" width="30" height="60" as="geometry" />
        </mxCell>
        <mxCell id="znzaiTQ--xKtSiv8sLQJ-3" style="edgeStyle=orthogonalEdgeStyle;rounded=0;orthogonalLoop=1;jettySize=auto;html=1;exitX=0;exitY=0.3333333333333333;exitDx=0;exitDy=0;exitPerimeter=0;entryX=1;entryY=0.5;entryDx=0;entryDy=0;" edge="1" parent="1" source="znzaiTQ--xKtSiv8sLQJ-6" target="znzaiTQ--xKtSiv8sLQJ-21">
          <mxGeometry relative="1" as="geometry" />
        </mxCell>
        <mxCell id="znzaiTQ--xKtSiv8sLQJ-4" style="edgeStyle=orthogonalEdgeStyle;rounded=0;orthogonalLoop=1;jettySize=auto;html=1;exitX=0.5;exitY=0.5;exitDx=0;exitDy=0;exitPerimeter=0;entryX=1;entryY=0.5;entryDx=0;entryDy=0;" edge="1" parent="1" source="znzaiTQ--xKtSiv8sLQJ-6" target="znzaiTQ--xKtSiv8sLQJ-22">
          <mxGeometry relative="1" as="geometry" />
        </mxCell>
        <mxCell id="znzaiTQ--xKtSiv8sLQJ-5" style="edgeStyle=orthogonalEdgeStyle;rounded=0;orthogonalLoop=1;jettySize=auto;html=1;exitX=0;exitY=1;exitDx=0;exitDy=0;exitPerimeter=0;entryX=1;entryY=0.5;entryDx=0;entryDy=0;" edge="1" parent="1" source="znzaiTQ--xKtSiv8sLQJ-6" target="znzaiTQ--xKtSiv8sLQJ-23">
          <mxGeometry relative="1" as="geometry" />
        </mxCell>
        <mxCell id="znzaiTQ--xKtSiv8sLQJ-6" value="Provedores" style="shape=umlActor;verticalLabelPosition=bottom;verticalAlign=top;html=1;outlineConnect=0;" vertex="1" parent="1">
          <mxGeometry x="1000" y="530" width="30" height="60" as="geometry" />
        </mxCell>
        <mxCell id="znzaiTQ--xKtSiv8sLQJ-7" style="edgeStyle=orthogonalEdgeStyle;rounded=0;orthogonalLoop=1;jettySize=auto;html=1;exitX=1;exitY=0.3333333333333333;exitDx=0;exitDy=0;exitPerimeter=0;entryX=0;entryY=0.5;entryDx=0;entryDy=0;" edge="1" parent="1" source="znzaiTQ--xKtSiv8sLQJ-9" target="znzaiTQ--xKtSiv8sLQJ-19">
          <mxGeometry relative="1" as="geometry" />
        </mxCell>
        <mxCell id="znzaiTQ--xKtSiv8sLQJ-8" style="edgeStyle=orthogonalEdgeStyle;rounded=0;orthogonalLoop=1;jettySize=auto;html=1;exitX=0.5;exitY=0.5;exitDx=0;exitDy=0;exitPerimeter=0;entryX=0;entryY=0.5;entryDx=0;entryDy=0;" edge="1" parent="1" source="znzaiTQ--xKtSiv8sLQJ-9" target="znzaiTQ--xKtSiv8sLQJ-20">
          <mxGeometry relative="1" as="geometry">
            <Array as="points">
              <mxPoint x="220" y="230" />
              <mxPoint x="220" y="310" />
            </Array>
          </mxGeometry>
        </mxCell>
        <mxCell id="znzaiTQ--xKtSiv8sLQJ-9" value="Gerente" style="shape=umlActor;verticalLabelPosition=bottom;verticalAlign=top;html=1;outlineConnect=0;" vertex="1" parent="1">
          <mxGeometry x="120" y="190" width="30" height="60" as="geometry" />
        </mxCell>
        <mxCell id="znzaiTQ--xKtSiv8sLQJ-10" value="Requerimiento de reposición" style="ellipse;whiteSpace=wrap;html=1;" vertex="1" parent="1">
          <mxGeometry x="280" y="380" width="150" height="40" as="geometry" />
        </mxCell>
        <mxCell id="znzaiTQ--xKtSiv8sLQJ-11" value="Análisis de mercadeo" style="ellipse;whiteSpace=wrap;html=1;" vertex="1" parent="1">
          <mxGeometry x="280" y="820" width="160" height="40" as="geometry" />
        </mxCell>
        <mxCell id="znzaiTQ--xKtSiv8sLQJ-12" value="Verificar productos" style="ellipse;whiteSpace=wrap;html=1;" vertex="1" parent="1">
          <mxGeometry x="285" y="880" width="150" height="40" as="geometry" />
        </mxCell>
        <mxCell id="znzaiTQ--xKtSiv8sLQJ-13" value="Generar orden de compra" style="ellipse;whiteSpace=wrap;html=1;" vertex="1" parent="1">
          <mxGeometry x="270" y="430" width="170" height="40" as="geometry" />
        </mxCell>
        <mxCell id="znzaiTQ--xKtSiv8sLQJ-14" value="Registro de entrega&amp;nbsp;" style="ellipse;whiteSpace=wrap;html=1;" vertex="1" parent="1">
          <mxGeometry x="280" y="480" width="150" height="40" as="geometry" />
        </mxCell>
        <mxCell id="znzaiTQ--xKtSiv8sLQJ-15" value="Registrar remisión&amp;nbsp;" style="ellipse;whiteSpace=wrap;html=1;" vertex="1" parent="1">
          <mxGeometry x="270" y="530" width="170" height="40" as="geometry" />
        </mxCell>
        <mxCell id="znzaiTQ--xKtSiv8sLQJ-16" value="Registrar factura Proveedor" style="ellipse;whiteSpace=wrap;html=1;" vertex="1" parent="1">
          <mxGeometry x="270" y="580" width="190" height="40" as="geometry" />
        </mxCell>
        <mxCell id="znzaiTQ--xKtSiv8sLQJ-17" value="Gestionar pagos" style="ellipse;whiteSpace=wrap;html=1;" vertex="1" parent="1">
          <mxGeometry x="285" y="630" width="160" height="40" as="geometry" />
        </mxCell>
        <mxCell id="znzaiTQ--xKtSiv8sLQJ-18" value="Generar informes" style="ellipse;whiteSpace=wrap;html=1;" vertex="1" parent="1">
          <mxGeometry x="270" y="680" width="190" height="40" as="geometry" />
        </mxCell>
        <mxCell id="znzaiTQ--xKtSiv8sLQJ-19" value="Seleccionar proveedor" style="ellipse;whiteSpace=wrap;html=1;" vertex="1" parent="1">
          <mxGeometry x="319" y="220" width="181" height="40" as="geometry" />
        </mxCell>
        <mxCell id="znzaiTQ--xKtSiv8sLQJ-20" value="Autorizar pago" style="ellipse;whiteSpace=wrap;html=1;" vertex="1" parent="1">
          <mxGeometry x="314.5" y="290" width="190" height="40" as="geometry" />
        </mxCell>
        <mxCell id="znzaiTQ--xKtSiv8sLQJ-21" value="Mandar cotización" style="ellipse;whiteSpace=wrap;html=1;" vertex="1" parent="1">
          <mxGeometry x="640" y="510" width="190" height="40" as="geometry" />
        </mxCell>
        <mxCell id="znzaiTQ--xKtSiv8sLQJ-22" value="Enviar mercadería (remisión)" style="ellipse;whiteSpace=wrap;html=1;" vertex="1" parent="1">
          <mxGeometry x="640" y="590" width="190" height="40" as="geometry" />
        </mxCell>
        <mxCell id="znzaiTQ--xKtSiv8sLQJ-23" value="Enviar Factura" style="ellipse;whiteSpace=wrap;html=1;" vertex="1" parent="1">
          <mxGeometry x="640" y="670" width="190" height="40" as="geometry" />
        </mxCell>
        <mxCell id="znzaiTQ--xKtSiv8sLQJ-24" value="Contratar transporte" style="ellipse;whiteSpace=wrap;html=1;" vertex="1" parent="1">
          <mxGeometry x="540" y="400" width="120" height="30" as="geometry" />
        </mxCell>
        <mxCell id="znzaiTQ--xKtSiv8sLQJ-25" value="Generar reclamo" style="ellipse;whiteSpace=wrap;html=1;" vertex="1" parent="1">
          <mxGeometry x="570" y="880" width="150" height="40" as="geometry" />
        </mxCell>
        <mxCell id="znzaiTQ--xKtSiv8sLQJ-26" style="edgeStyle=orthogonalEdgeStyle;rounded=0;orthogonalLoop=1;jettySize=auto;html=1;entryX=0;entryY=0.5;entryDx=0;entryDy=0;" edge="1" parent="1" source="znzaiTQ--xKtSiv8sLQJ-33" target="znzaiTQ--xKtSiv8sLQJ-18">
          <mxGeometry relative="1" as="geometry" />
        </mxCell>
        <mxCell id="znzaiTQ--xKtSiv8sLQJ-27" style="edgeStyle=orthogonalEdgeStyle;rounded=0;orthogonalLoop=1;jettySize=auto;html=1;entryX=0;entryY=0.5;entryDx=0;entryDy=0;" edge="1" parent="1" source="znzaiTQ--xKtSiv8sLQJ-33" target="znzaiTQ--xKtSiv8sLQJ-17">
          <mxGeometry relative="1" as="geometry">
            <Array as="points">
              <mxPoint x="210" y="550" />
              <mxPoint x="210" y="650" />
            </Array>
          </mxGeometry>
        </mxCell>
        <mxCell id="znzaiTQ--xKtSiv8sLQJ-28" style="edgeStyle=orthogonalEdgeStyle;rounded=0;orthogonalLoop=1;jettySize=auto;html=1;entryX=0;entryY=0.5;entryDx=0;entryDy=0;" edge="1" parent="1" target="znzaiTQ--xKtSiv8sLQJ-16">
          <mxGeometry relative="1" as="geometry">
            <mxPoint x="150" y="550" as="sourcePoint" />
          </mxGeometry>
        </mxCell>
        <mxCell id="znzaiTQ--xKtSiv8sLQJ-29" style="edgeStyle=orthogonalEdgeStyle;rounded=0;orthogonalLoop=1;jettySize=auto;html=1;entryX=0;entryY=0.5;entryDx=0;entryDy=0;" edge="1" parent="1" source="znzaiTQ--xKtSiv8sLQJ-33" target="znzaiTQ--xKtSiv8sLQJ-15">
          <mxGeometry relative="1" as="geometry" />
        </mxCell>
        <mxCell id="znzaiTQ--xKtSiv8sLQJ-30" style="edgeStyle=orthogonalEdgeStyle;rounded=0;orthogonalLoop=1;jettySize=auto;html=1;entryX=0;entryY=0.5;entryDx=0;entryDy=0;" edge="1" parent="1" source="znzaiTQ--xKtSiv8sLQJ-33" target="znzaiTQ--xKtSiv8sLQJ-14">
          <mxGeometry relative="1" as="geometry">
            <Array as="points">
              <mxPoint x="210" y="550" />
              <mxPoint x="210" y="500" />
            </Array>
          </mxGeometry>
        </mxCell>
        <mxCell id="znzaiTQ--xKtSiv8sLQJ-31" style="edgeStyle=orthogonalEdgeStyle;rounded=0;orthogonalLoop=1;jettySize=auto;html=1;entryX=0;entryY=0.5;entryDx=0;entryDy=0;" edge="1" parent="1" source="znzaiTQ--xKtSiv8sLQJ-33" target="znzaiTQ--xKtSiv8sLQJ-13">
          <mxGeometry relative="1" as="geometry" />
        </mxCell>
        <mxCell id="znzaiTQ--xKtSiv8sLQJ-32" style="edgeStyle=orthogonalEdgeStyle;rounded=0;orthogonalLoop=1;jettySize=auto;html=1;entryX=0;entryY=0.5;entryDx=0;entryDy=0;" edge="1" parent="1" source="znzaiTQ--xKtSiv8sLQJ-33" target="znzaiTQ--xKtSiv8sLQJ-10">
          <mxGeometry relative="1" as="geometry">
            <Array as="points">
              <mxPoint x="210" y="550" />
              <mxPoint x="210" y="400" />
            </Array>
          </mxGeometry>
        </mxCell>
        <mxCell id="znzaiTQ--xKtSiv8sLQJ-33" value="&lt;br&gt;Sector de Compras (sub-rol)&lt;div&gt;&lt;br&gt;&lt;/div&gt;" style="shape=umlActor;verticalLabelPosition=bottom;verticalAlign=top;html=1;outlineConnect=0;" vertex="1" parent="1">
          <mxGeometry x="120" y="520" width="30" height="60" as="geometry" />
        </mxCell>
        <mxCell id="znzaiTQ--xKtSiv8sLQJ-34" style="edgeStyle=orthogonalEdgeStyle;rounded=0;orthogonalLoop=1;jettySize=auto;html=1;entryX=0;entryY=0.5;entryDx=0;entryDy=0;" edge="1" parent="1" source="znzaiTQ--xKtSiv8sLQJ-36" target="znzaiTQ--xKtSiv8sLQJ-11">
          <mxGeometry relative="1" as="geometry">
            <Array as="points">
              <mxPoint x="210" y="930" />
              <mxPoint x="210" y="840" />
            </Array>
          </mxGeometry>
        </mxCell>
        <mxCell id="znzaiTQ--xKtSiv8sLQJ-35" style="edgeStyle=orthogonalEdgeStyle;rounded=0;orthogonalLoop=1;jettySize=auto;html=1;entryX=0;entryY=0.5;entryDx=0;entryDy=0;" edge="1" parent="1" source="znzaiTQ--xKtSiv8sLQJ-36" target="znzaiTQ--xKtSiv8sLQJ-12">
          <mxGeometry relative="1" as="geometry">
            <Array as="points">
              <mxPoint x="210" y="930" />
              <mxPoint x="210" y="900" />
            </Array>
          </mxGeometry>
        </mxCell>
        <mxCell id="znzaiTQ--xKtSiv8sLQJ-36" value="&lt;br&gt;Encargado del trámite (sub-rol)&lt;div&gt;&lt;br/&gt;&lt;/div&gt;" style="shape=umlActor;verticalLabelPosition=bottom;verticalAlign=top;html=1;outlineConnect=0;" vertex="1" parent="1">
          <mxGeometry x="100" y="900" width="30" height="60" as="geometry" />
        </mxCell>
        <mxCell id="znzaiTQ--xKtSiv8sLQJ-37" style="edgeStyle=orthogonalEdgeStyle;rounded=0;orthogonalLoop=1;jettySize=auto;html=1;exitX=0.5;exitY=0.5;exitDx=0;exitDy=0;exitPerimeter=0;entryX=0;entryY=0.3333333333333333;entryDx=0;entryDy=0;entryPerimeter=0;" edge="1" parent="1" source="znzaiTQ--xKtSiv8sLQJ-2" target="znzaiTQ--xKtSiv8sLQJ-36">
          <mxGeometry relative="1" as="geometry" />
        </mxCell>
        <mxCell id="znzaiTQ--xKtSiv8sLQJ-38" style="edgeStyle=orthogonalEdgeStyle;rounded=0;orthogonalLoop=1;jettySize=auto;html=1;exitX=0.5;exitY=0.5;exitDx=0;exitDy=0;exitPerimeter=0;entryX=0;entryY=0.3333333333333333;entryDx=0;entryDy=0;entryPerimeter=0;" edge="1" parent="1" source="znzaiTQ--xKtSiv8sLQJ-2" target="znzaiTQ--xKtSiv8sLQJ-33">
          <mxGeometry relative="1" as="geometry">
            <Array as="points">
              <mxPoint x="80" y="760" />
              <mxPoint x="80" y="540" />
            </Array>
          </mxGeometry>
        </mxCell>
        <mxCell id="znzaiTQ--xKtSiv8sLQJ-39" style="edgeStyle=orthogonalEdgeStyle;rounded=0;orthogonalLoop=1;jettySize=auto;html=1;entryX=0.5;entryY=0;entryDx=0;entryDy=0;entryPerimeter=0;" edge="1" parent="1" source="znzaiTQ--xKtSiv8sLQJ-9" target="znzaiTQ--xKtSiv8sLQJ-2">
          <mxGeometry relative="1" as="geometry" />
        </mxCell>
        <mxCell id="znzaiTQ--xKtSiv8sLQJ-40" value="&lt;font style=&quot;font-size: 48px;&quot;&gt;Diagrama de Casos de Uso UML - Gestión de Compras&lt;/font&gt;" style="text;html=1;align=center;verticalAlign=middle;resizable=0;points=[];autosize=1;strokeColor=none;fillColor=none;" vertex="1" parent="1">
          <mxGeometry x="-75" y="90" width="1210" height="70" as="geometry" />
        </mxCell>
        <mxCell id="znzaiTQ--xKtSiv8sLQJ-41" value="include" style="endArrow=block;dashed=1;endFill=0;endSize=12;html=1;rounded=0;exitX=1;exitY=0.5;exitDx=0;exitDy=0;entryX=0;entryY=0.5;entryDx=0;entryDy=0;" edge="1" parent="1" source="znzaiTQ--xKtSiv8sLQJ-13" target="znzaiTQ--xKtSiv8sLQJ-24">
          <mxGeometry width="160" relative="1" as="geometry">
            <mxPoint x="460" y="480" as="sourcePoint" />
            <mxPoint x="620" y="480" as="targetPoint" />
          </mxGeometry>
        </mxCell>
        <mxCell id="znzaiTQ--xKtSiv8sLQJ-42" value="Extends" style="endArrow=block;endSize=16;endFill=0;html=1;rounded=0;exitX=1;exitY=0.5;exitDx=0;exitDy=0;" edge="1" parent="1" source="znzaiTQ--xKtSiv8sLQJ-12" target="znzaiTQ--xKtSiv8sLQJ-25">
          <mxGeometry width="160" relative="1" as="geometry">
            <mxPoint x="460" y="879.1299999999999" as="sourcePoint" />
            <mxPoint x="620" y="879.1299999999999" as="targetPoint" />
          </mxGeometry>
        </mxCell>
      </root>
    </mxGraphModel>
  </diagram>
</mxfile>
